<svg xmlns="http://www.w3.org/2000/svg" xmlns:xlink="http://www.w3.org/1999/xlink" viewBox="0,0,256,256" width="52px" height="52px" fill-rule="nonzero"><g fill="#ffffff" fill-rule="nonzero" stroke="none" stroke-width="1" stroke-linecap="butt" stroke-linejoin="miter" stroke-miterlimit="10" stroke-dasharray="" stroke-dashoffset="0" font-family="none" font-weight="none" font-size="none" text-anchor="none" style="mix-blend-mode: normal"><g transform="scale(9.84615,9.84615)"><path d="M2.10156,23c0,0 0,-1.5 0,-1.69922c0,-2.19922 3.29687,-4.19922 6.89844,-4.90234c0,0 1.10156,-0.59766 0.80078,-1.69922c-1.10156,-1.39844 -1.40234,-2.89844 -1.40234,-2.89844c-0.19922,-0.10156 -0.5,-0.30078 -0.69922,-0.5c-0.30078,-0.40234 -0.69922,-1.60156 -0.59766,-2.5c0.09766,-0.80078 0.29688,-0.5 0.39844,-0.69922c-0.80078,-1.80078 -0.39844,-4.10156 0.5,-5.80078c1.89844,-3.30078 5.89844,-2.30078 6.5,-1.10156c3.80078,-0.69922 3.69922,5.30078 3.10156,6.80078c0,0 0.29688,0.10156 0.29688,1.5c-0.09766,1.5 -1.29687,2.39844 -1.29687,2.39844c0,0.40234 -0.5,1.60156 -1.30078,2.70313c-0.69922,1.39844 0.69922,1.69922 0.69922,1.69922c3.60156,0.69922 6.89844,2.69922 6.89844,4.89844c0,0.19922 0,1.69922 0,1.69922c0,1.40234 -5.39844,2.90234 -10.39844,2.90234c-4.89844,0 -10.39844,-0.5 -10.39844,-2.80078z"></path></g></g></svg>